# xmcd
#
# Track frame offsets: 
#        150
#        13209
#        24415
#        34948
#        45286
#        55658
#        66930
#        77090
#        88688
#        100225
#        111966
#        125097
#        137624
#        149697
#        161024
#
# Disc length: 2334 seconds
#
# Revision: 3
# Processed by: cddbd v1.5.2PL0 Copyright (c) Steve Scherf et al.
# Submitted via: ExactAudioCopyFreeDBPlugin 1.0
#
DISCID=ce091c0f
DTITLE=Ray Charles - Blues Before Sunrise [CD2 Blues Is My Middle N
DTITLE=ame)
DYEAR=2004
DGENRE=Jazz
TTITLE0=Baby Won't You Please Come Home
TTITLE1=She's On The Ball
TTITLE2=Th' Ego Song
TTITLE3=Hey Now
TTITLE4=I Wonder Who's Kissing Her Now
TTITLE5=Back Home
TTITLE6=Sitting On Top On The World
TTITLE7=How Long Blues
TTITLE8=C C Rider
TTITLE9=Can't You See Me, Darling?
TTITLE10=Alone In The City
TTITLE11=Blues Before Sunrise
TTITLE12=I've Had My Fun (Going Down Slow)
TTITLE13=Let's Have A Ball
TTITLE14=Someday (Blues Is My Middle Name)
EXTD=Sampler\nDistributor: Pazzazz
EXTT0=
EXTT1=
EXTT2=
EXTT3=
EXTT4=
EXTT5=
EXTT6=
EXTT7=
EXTT8=
EXTT9=
EXTT10=
EXTT11=
EXTT12=
EXTT13=
EXTT14=
PLAYORDER=
